<?xml version="1.0" encoding="utf-8"?>
<!-- Generator: Adobe Illustrator 26.1.0, SVG Export Plug-In . SVG Version: 6.00 Build 0)  -->
<svg version="1.1" id="Calque_1" xmlns="http://www.w3.org/2000/svg" xmlns:xlink="http://www.w3.org/1999/xlink" x="0px" y="0px"
	 viewBox="0 0 1280 1024" style="enable-background:new 0 0 1280 1024;" xml:space="preserve">
<style type="text/css">
	.st0{fill:url(#SVGID_1_);}
	.st1{clip-path:url(#XMLID_00000116237466119625622440000011271904052405755540_);}
	
		.st2{clip-path:url(#XMLID_00000065783101815801774770000005175001533461933226_);fill:url(#XMLID_00000040562371721963349590000015320793245961337019_);}
	.st3{clip-path:url(#XMLID_00000016061369437505847060000002414676200696476807_);}
	
		.st4{clip-path:url(#XMLID_00000083806260248024363200000014856538056741774008_);fill:url(#XMLID_00000176019335015814717870000000494447467939498166_);}
	
		.st5{clip-path:url(#XMLID_00000134233001736612700840000017913549696906666644_);fill:url(#XMLID_00000108283032529730656260000005803090640619136178_);}
	
		.st6{clip-path:url(#XMLID_00000111161079141917623910000013131719266117977223_);fill:url(#XMLID_00000128473437881948622090000000743020214996501656_);}
	.st7{fill:none;}
</style>
<linearGradient id="SVGID_1_" gradientUnits="userSpaceOnUse" x1="164.3408" y1="973.1288" x2="1429.2892" y2="-227.6877">
	<stop  offset="0.3728" style="stop-color:#F8FBFD"/>
	<stop  offset="0.4619" style="stop-color:#F4F8FA"/>
	<stop  offset="0.5538" style="stop-color:#E7EDF0"/>
	<stop  offset="0.6472" style="stop-color:#D3DCE1"/>
	<stop  offset="0.7415" style="stop-color:#B6C4CB"/>
	<stop  offset="0.8366" style="stop-color:#90A5AF"/>
	<stop  offset="0.9309" style="stop-color:#637F8D"/>
	<stop  offset="0.9817" style="stop-color:#486878"/>
</linearGradient>
<circle class="st0" cx="659.27" cy="503.3" r="473.79"/>
<g id="XMLID_3_">
	<defs>
		
			<rect id="XMLID_4_" x="120.38" y="101.98" transform="matrix(0.3591 -0.9333 0.9333 0.3591 -140.5991 837.6617)" width="838.45" height="838.45"/>
	</defs>
	<clipPath id="XMLID_00000008113324841086625510000015185213012832078752_">
		<use xlink:href="#XMLID_4_"  style="overflow:visible;"/>
	</clipPath>
	<g id="XMLID_147_" style="clip-path:url(#XMLID_00000008113324841086625510000015185213012832078752_);">
		<defs>
			<path id="XMLID_00000120525775371272649370000006231614346592433536_" d="M348.56,530.94c-21.3-4.31-42.09-10.52-62.3-19.03
				c-10.09-4.25-19.97-9.12-29.56-14.72c-9.67-5.8-18.62-11.54-27.81-20.15c-0.21-0.2-0.42-0.42-0.63-0.64
				c-3.78-4.22-3.43-10.71,0.79-14.49c2.73-2.45,6.4-3.17,9.67-2.23c1.8,0.51,3.48,1.52,4.82,3.02"/>
		</defs>
		<clipPath id="XMLID_00000026848845817098162800000009198330725640643746_">
			<use xlink:href="#XMLID_00000120525775371272649370000006231614346592433536_"  style="overflow:visible;"/>
		</clipPath>
	</g>
	<g id="XMLID_136_" style="clip-path:url(#XMLID_00000008113324841086625510000015185213012832078752_);">
		<defs>
			
				<rect id="XMLID_137_" x="120.38" y="101.98" transform="matrix(0.3591 -0.9333 0.9333 0.3591 -140.5991 837.6617)" width="838.45" height="838.45"/>
		</defs>
		<clipPath id="XMLID_00000144308317527230904760000017271772313079351447_">
			<use xlink:href="#XMLID_137_"  style="overflow:visible;"/>
		</clipPath>
	</g>
	<g id="XMLID_133_" style="clip-path:url(#XMLID_00000008113324841086625510000015185213012832078752_);">
		<defs>
			<polygon id="XMLID_134_" points="542.97,520.12 523.46,512.61 496.09,415 510.92,405.84 			"/>
		</defs>
		<clipPath id="XMLID_00000120539062961127448030000006088860647691543734_">
			<use xlink:href="#XMLID_134_"  style="overflow:visible;"/>
		</clipPath>
	</g>
	<g id="XMLID_125_" style="clip-path:url(#XMLID_00000008113324841086625510000015185213012832078752_);">
		<defs>
			
				<rect id="XMLID_126_" x="120.38" y="101.98" transform="matrix(0.3591 -0.9333 0.9333 0.3591 -140.5991 837.6617)" width="838.45" height="838.45"/>
		</defs>
		<clipPath id="XMLID_00000119117577296883124170000011224679595182604974_">
			<use xlink:href="#XMLID_126_"  style="overflow:visible;"/>
		</clipPath>
	</g>
	<g id="XMLID_8_" style="clip-path:url(#XMLID_00000008113324841086625510000015185213012832078752_);">
		<defs>
			
				<rect id="XMLID_9_" x="120.38" y="101.98" transform="matrix(0.3591 -0.9333 0.9333 0.3591 -140.5991 837.6617)" width="838.45" height="838.45"/>
		</defs>
		<clipPath id="XMLID_00000034061826672526245940000016131779062845174456_">
			<use xlink:href="#XMLID_9_"  style="overflow:visible;"/>
		</clipPath>
	</g>
	<g id="XMLID_5_" style="clip-path:url(#XMLID_00000008113324841086625510000015185213012832078752_);">
		<defs>
			<path id="XMLID_6_" d="M558.87,370.96c47.07,47.83,51.22,95.99,51.32,139.84c0.07,30.69-2.9,66.37,1.81,95.03
				c7.53,45.84,19.26,81.21,37.89,101.46c24.26,26.37,123.75,69.23,151.48,67.52c-27.54,3.41-142.07-22.31-174.66-68.12
				c-28.78-40.45-33.39-67.14-40.03-94.25c-18.22-74.48,3.82-137.23-24.83-184.87c-18.8-31.26-52.43-64.27-75.31-78.88
				c-33.54-21.42-50.92-27.65-74.65-35.66c-29.75-10.06-52.27-8.12-77.87-6.03c-12.78,1.06-25.37,3.22-37.36,6.65
				c-5.99,1.72-11.83,3.77-17.4,6.13c-2.77,1.17-5.48,2.44-8.06,3.77c-2.37,1.23-5.41,3-6.43,3.78c-8.96,6.96-21.86,5.33-28.82-3.64
				c-6.96-8.96-5.31-21.86,3.65-28.82c0.6-0.46,1.22-0.89,1.84-1.29l0.61-0.36c4.84-2.96,7.99-4.36,11.88-6.13
				c3.7-1.63,7.39-3.08,11.08-4.4c7.42-2.6,14.85-4.67,22.33-6.33c14.95-3.29,30.01-4.89,44.95-5.2
				c29.92-0.57,59.25,4.12,87.15,12.06c7.98,2.24,15.74,4.83,23.27,7.73C488,308.37,525.59,337.13,558.87,370.96"/>
		</defs>
		<clipPath id="XMLID_00000115475888052225065190000001170331029037994390_">
			<use xlink:href="#XMLID_6_"  style="overflow:visible;"/>
		</clipPath>
		
			<linearGradient id="XMLID_00000075870597048343265390000004628250748643001752_" gradientUnits="userSpaceOnUse" x1="700.4732" y1="828.6131" x2="490.0668" y2="446.7644">
			<stop  offset="0" style="stop-color:#F8FBFD"/>
			<stop  offset="0" style="stop-color:#ECF1F4"/>
			<stop  offset="0" style="stop-color:#CCD6DC"/>
			<stop  offset="0" style="stop-color:#97AAB4"/>
			<stop  offset="0" style="stop-color:#506F7E"/>
			<stop  offset="0" style="stop-color:#486878"/>
			<stop  offset="1" style="stop-color:#486878"/>
		</linearGradient>
		
			<rect id="XMLID_7_" x="134.85" y="221.07" style="clip-path:url(#XMLID_00000115475888052225065190000001170331029037994390_);fill:url(#XMLID_00000075870597048343265390000004628250748643001752_);" width="782.46" height="582.12"/>
	</g>
	<g id="XMLID_164_" style="clip-path:url(#XMLID_00000008113324841086625510000015185213012832078752_);">
	</g>
</g>
<g id="XMLID_00000073691355905355819940000005707027729384645292_">
	<defs>
		
			<rect id="XMLID_00000158011695558608637800000002504611638835961510_" x="241.46" y="93.46" transform="matrix(0.3591 -0.9333 0.9333 0.3591 -55.0442 945.2134)" width="838.45" height="838.45"/>
	</defs>
	<clipPath id="XMLID_00000059298929588076414990000001412289780817973380_">
		<use xlink:href="#XMLID_00000158011695558608637800000002504611638835961510_"  style="overflow:visible;"/>
	</clipPath>
	
		<g id="XMLID_00000012444790497166478690000004062868189516337290_" style="clip-path:url(#XMLID_00000059298929588076414990000001412289780817973380_);">
		<defs>
			<path id="XMLID_00000097479649010487971260000006874162220175413920_" d="M470.24,482.63c-20.82-6.21-40.97-14.26-60.34-24.55
				c-9.66-5.14-19.07-10.87-28.12-17.32c-9.11-6.64-17.51-13.17-25.89-22.57c-0.19-0.22-0.38-0.45-0.57-0.7
				c-3.39-4.54-2.46-10.97,2.09-14.36c2.94-2.19,6.66-2.58,9.84-1.36c1.74,0.67,3.33,1.83,4.53,3.44"/>
		</defs>
		<clipPath id="XMLID_00000102522955681460325410000013105611684325103750_">
			<use xlink:href="#XMLID_00000097479649010487971260000006874162220175413920_"  style="overflow:visible;"/>
		</clipPath>
	</g>
	
		<g id="XMLID_00000029741648249925527250000004097822708624959925_" style="clip-path:url(#XMLID_00000059298929588076414990000001412289780817973380_);">
		<defs>
			
				<rect id="XMLID_00000071544233685662076710000005869389843395419314_" x="241.46" y="93.46" transform="matrix(0.3591 -0.9333 0.9333 0.3591 -55.0442 945.2134)" width="838.45" height="838.45"/>
		</defs>
		<clipPath id="XMLID_00000067951302319972077480000009576476810563565228_">
			<use xlink:href="#XMLID_00000071544233685662076710000005869389843395419314_"  style="overflow:visible;"/>
		</clipPath>
	</g>
	
		<g id="XMLID_00000071551149422438780750000002541285093987854746_" style="clip-path:url(#XMLID_00000059298929588076414990000001412289780817973380_);">
		<defs>
			<polygon id="XMLID_00000086650592867323881290000016458219173322140575_" points="664.05,511.6 644.54,504.09 617.18,406.48 
				632.01,397.33 			"/>
		</defs>
		<clipPath id="XMLID_00000157279330881302743220000010230967812362545076_">
			<use xlink:href="#XMLID_00000086650592867323881290000016458219173322140575_"  style="overflow:visible;"/>
		</clipPath>
	</g>
	
		<g id="XMLID_00000093899738751180394960000000400765509597640625_" style="clip-path:url(#XMLID_00000059298929588076414990000001412289780817973380_);">
		<defs>
			
				<rect id="XMLID_00000094613194590434571280000005598781428361915303_" x="241.46" y="93.46" transform="matrix(0.3591 -0.9333 0.9333 0.3591 -55.0442 945.2134)" width="838.45" height="838.45"/>
		</defs>
		<clipPath id="XMLID_00000183212427874372907350000014972965208118239924_">
			<use xlink:href="#XMLID_00000094613194590434571280000005598781428361915303_"  style="overflow:visible;"/>
		</clipPath>
	</g>
	
		<g id="XMLID_00000053508080187061710580000015673640782420726935_" style="clip-path:url(#XMLID_00000059298929588076414990000001412289780817973380_);">
		<defs>
			
				<rect id="XMLID_00000173850229872273118280000000664962238679367850_" x="241.46" y="93.46" transform="matrix(0.3591 -0.9333 0.9333 0.3591 -55.0442 945.2134)" width="838.45" height="838.45"/>
		</defs>
		<clipPath id="XMLID_00000074443173680583995800000000288611814243219101_">
			<use xlink:href="#XMLID_00000173850229872273118280000000664962238679367850_"  style="overflow:visible;"/>
		</clipPath>
	</g>
	
		<g id="XMLID_00000155864322310720259010000005182857800383158199_" style="clip-path:url(#XMLID_00000059298929588076414990000001412289780817973380_);">
		<defs>
			<path id="XMLID_00000080907746266241383540000011218278761880305820_" d="M679.96,371.64c47.07,47.83,51.22,95.99,51.32,139.84
				c0.07,30.69-2.9,66.37,1.81,95.03c7.53,45.84,19.26,81.21,37.89,101.46c24.26,26.37,123.75,69.23,151.48,67.52
				c-27.54,3.41-142.07-22.31-174.66-68.12c-28.78-40.45-33.39-67.14-40.03-94.25c-18.22-74.48,3.82-137.23-24.83-184.87
				c-18.8-31.26-52.43-64.27-75.31-78.88c-33.54-21.42-50.92-27.65-74.65-35.66c-29.75-10.06-52.27-8.12-77.87-6.03
				c-12.78,1.06-25.37,3.22-37.36,6.65c-5.98,1.72-11.83,3.77-17.4,6.13c-2.77,1.17-5.48,2.44-8.06,3.77
				c-2.37,1.23-5.41,3-6.43,3.78c-8.96,6.96-21.86,5.33-28.82-3.64c-6.96-8.96-5.31-21.86,3.65-28.82c0.6-0.46,1.22-0.89,1.84-1.29
				l0.61-0.36c4.84-2.96,7.99-4.36,11.88-6.13c3.7-1.63,7.39-3.08,11.08-4.4c7.42-2.6,14.85-4.67,22.33-6.33
				c14.95-3.29,30.01-4.89,44.95-5.2c29.92-0.57,59.25,4.12,87.15,12.06c7.98,2.24,15.74,4.83,23.27,7.73
				C609.09,309.05,646.67,337.81,679.96,371.64"/>
		</defs>
		<clipPath id="XMLID_00000120541972635821424380000014663107230536274570_">
			<use xlink:href="#XMLID_00000080907746266241383540000011218278761880305820_"  style="overflow:visible;"/>
		</clipPath>
	</g>
	
		<g id="XMLID_00000078730798344875969400000014551656347151295151_" style="clip-path:url(#XMLID_00000059298929588076414990000001412289780817973380_);">
	</g>
</g>
<g id="XMLID_00000023269663905066801250000017087223912907274680_">
	<defs>
		<path id="XMLID_00000168115503968958557490000007734560357024317871_" d="M882.65,566.23c35.73,12.39,70.77,28.27,102.83,48.65
			c15.99,10.19,31.23,21.48,45.18,34.01c6.97,6.27,13.61,12.84,19.87,19.81c3.11,3.49,6.11,7.08,8.99,10.81
			c3,3.98,5.46,7.17,8.67,12.7l0.41,0.69c0.39,0.72,0.77,1.47,1.11,2.23c4.93,11.4-2.16,22.57-15.88,24.93
			c-13.72,2.37-28.83-4.96-33.77-16.36c-0.57-1.29-2.65-4.71-4.38-7.24c-1.88-2.75-3.94-5.54-6.14-8.31
			c-4.41-5.56-9.35-11.04-14.66-16.38c-10.64-10.67-22.82-20.75-35.95-30.08c-26.33-18.69-56.62-34.36-88.62-47.17
			c-32.03-12.85-65.81-22.86-100.18-30.68c-34.49-7.98-69.2-12.9-105.13-17.99c-71.33-10.5-142.8-20.35-214.25-34.07
			c-35.65-7.04-71.51-15.2-105.95-27.7c-34.53-12.32-66.36-30.16-93.9-51.18c28.91,19.81,61.36,35.93,95.7,46.38
			c34.29,10.63,69.74,16.96,105.12,22.22c70.92,10.16,142.22,16.52,213.53,23.54c59.92,4.86,122.52,13.03,183.54,30.46
			C860.15,558.75,871.44,562.31,882.65,566.23"/>
	</defs>
	<clipPath id="XMLID_00000067942844804306986930000011929451715321267091_">
		<use xlink:href="#XMLID_00000168115503968958557490000007734560357024317871_"  style="overflow:visible;"/>
	</clipPath>
	
		<linearGradient id="XMLID_00000073683922717788590830000016932190368598102184_" gradientUnits="userSpaceOnUse" x1="495.166" y1="657.2613" x2="498.0773" y2="657.2613" gradientTransform="matrix(-698.5181 -429.6107 443.8092 -502.5089 55895.2344 544210.75)">
		<stop  offset="0" style="stop-color:#F8FBFD"/>
		<stop  offset="0.0731" style="stop-color:#ECF1F4"/>
		<stop  offset="0.2056" style="stop-color:#CCD6DC"/>
		<stop  offset="0.3826" style="stop-color:#97AAB4"/>
		<stop  offset="0.5952" style="stop-color:#506F7E"/>
		<stop  offset="0.618" style="stop-color:#486878"/>
		<stop  offset="1" style="stop-color:#486878"/>
	</linearGradient>
	
		<polygon id="XMLID_00000036213148555309392730000018107874597276395652_" style="clip-path:url(#XMLID_00000067942844804306986930000011929451715321267091_);fill:url(#XMLID_00000073683922717788590830000016932190368598102184_);" points="
		1137.69,651.26 420.84,210.38 193.8,467.44 910.65,908.33 	"/>
</g>
<g id="XMLID_00000094602820230636721580000012085737523895515545_">
	<defs>
		<path id="XMLID_00000095313053366207075720000007193598510464838017_" d="M660.07,371.92c47.07,47.83,51.22,95.99,51.32,139.84
			c0.07,30.69-2.9,66.37,1.81,95.03c7.53,45.84,19.26,81.21,37.89,101.46c24.26,26.37,123.75,69.23,151.48,67.52
			c-27.54,3.41-142.07-22.31-174.66-68.12c-28.78-40.45-33.39-67.14-40.03-94.25c-18.22-74.48,3.82-137.23-24.83-184.87
			c-18.8-31.26-52.43-64.27-75.31-78.88c-33.54-21.42-50.92-27.65-74.65-35.66c-29.75-10.06-52.27-8.12-77.87-6.03
			c-12.78,1.06-25.37,3.22-37.36,6.65c-5.99,1.72-11.83,3.77-17.4,6.13c-2.77,1.17-5.48,2.44-8.06,3.77c-2.37,1.23-5.41,3-6.43,3.78
			c-8.96,6.96-21.86,5.33-28.82-3.64c-6.96-8.96-5.31-21.86,3.65-28.82c0.6-0.46,1.22-0.89,1.84-1.29l0.61-0.36
			c4.84-2.96,7.99-4.36,11.88-6.13c3.7-1.63,7.39-3.08,11.08-4.4c7.42-2.6,14.85-4.67,22.33-6.33c14.95-3.29,30.01-4.89,44.95-5.2
			c29.92-0.57,59.25,4.12,87.15,12.06c7.98,2.24,15.74,4.83,23.27,7.73C589.2,309.33,626.78,338.09,660.07,371.92"/>
	</defs>
	<clipPath id="XMLID_00000117664157459229532190000011510290688560056504_">
		<use xlink:href="#XMLID_00000095313053366207075720000007193598510464838017_"  style="overflow:visible;"/>
	</clipPath>
	
		<linearGradient id="XMLID_00000112616458728181008670000013593313649841256084_" gradientUnits="userSpaceOnUse" x1="497.2617" y1="656.85" x2="500.173" y2="656.85" gradientTransform="matrix(576.9645 -0.457 -0.457 -576.9645 -286408.6875 379719.7812)">
		<stop  offset="0" style="stop-color:#F8FBFD"/>
		<stop  offset="2.349601e-03" style="stop-color:#ECF1F4"/>
		<stop  offset="6.612895e-03" style="stop-color:#CCD6DC"/>
		<stop  offset="0.0123" style="stop-color:#97AAB4"/>
		<stop  offset="0.0191" style="stop-color:#506F7E"/>
		<stop  offset="0.0199" style="stop-color:#486878"/>
		<stop  offset="1" style="stop-color:#486878"/>
	</linearGradient>
	
		<rect id="XMLID_00000089572314291954028060000005681195449586315939_" x="236.05" y="222.03" style="clip-path:url(#XMLID_00000117664157459229532190000011510290688560056504_);fill:url(#XMLID_00000112616458728181008670000013593313649841256084_);" width="782.46" height="582.12"/>
</g>
<g id="XMLID_00000134239854762912922090000015517564154801988783_">
	<defs>
		<path id="XMLID_00000033333777607365293430000007784556492260113823_" d="M767.4,371.92c47.07,47.83,51.22,95.99,51.32,139.84
			c0.07,30.69-2.9,66.37,1.81,95.03c7.53,45.84,19.26,81.21,37.89,101.46c24.26,26.37,123.75,69.23,151.48,67.52
			c-27.54,3.41-142.07-22.31-174.66-68.12c-28.78-40.45-33.39-67.14-40.03-94.25c-18.22-74.48,3.82-137.23-24.83-184.87
			c-18.8-31.26-52.43-64.27-75.31-78.88c-33.54-21.42-50.92-27.65-74.65-35.66c-29.75-10.06-52.27-8.12-77.87-6.03
			c-12.78,1.06-25.37,3.22-37.36,6.65c-5.99,1.72-11.83,3.77-17.4,6.13c-2.77,1.17-5.48,2.44-8.06,3.77c-2.37,1.23-5.41,3-6.43,3.78
			c-8.96,6.96-21.86,5.33-28.82-3.64c-6.96-8.96-5.31-21.86,3.65-28.82c0.6-0.46,1.22-0.89,1.84-1.29l0.61-0.36
			c4.84-2.96,7.99-4.36,11.88-6.13c3.7-1.63,7.39-3.08,11.08-4.4c7.42-2.6,14.85-4.67,22.33-6.33c14.95-3.29,30.01-4.89,44.95-5.2
			c29.92-0.57,59.25,4.12,87.15,12.06c7.98,2.24,15.74,4.83,23.27,7.73C696.53,309.33,734.12,338.09,767.4,371.92"/>
	</defs>
	
		<linearGradient id="XMLID_00000050658186373354026720000012949021824894471069_" gradientUnits="userSpaceOnUse" x1="440.1828" y1="524.0717" x2="1009.9011" y2="524.0717">
		<stop  offset="0" style="stop-color:#F8FBFD"/>
		<stop  offset="2.349601e-03" style="stop-color:#ECF1F4"/>
		<stop  offset="6.612895e-03" style="stop-color:#CCD6DC"/>
		<stop  offset="0.0123" style="stop-color:#97AAB4"/>
		<stop  offset="0.0191" style="stop-color:#506F7E"/>
		<stop  offset="0.0199" style="stop-color:#486878"/>
		<stop  offset="1" style="stop-color:#486878"/>
	</linearGradient>
	
		<use xlink:href="#XMLID_00000033333777607365293430000007784556492260113823_"  style="overflow:visible;fill:url(#XMLID_00000050658186373354026720000012949021824894471069_);"/>
	<clipPath id="XMLID_00000153697869164774481180000013015123976257725878_">
		<use xlink:href="#XMLID_00000033333777607365293430000007784556492260113823_"  style="overflow:visible;"/>
	</clipPath>
	
		<linearGradient id="XMLID_00000054239241603634461250000003529833724280185276_" gradientUnits="userSpaceOnUse" x1="497.4478" y1="656.8499" x2="500.3591" y2="656.8499" gradientTransform="matrix(576.9645 -0.457 -0.457 -576.9645 -286408.6875 379719.7812)">
		<stop  offset="0" style="stop-color:#F8FBFD"/>
		<stop  offset="2.349601e-03" style="stop-color:#ECF1F4"/>
		<stop  offset="6.612895e-03" style="stop-color:#CCD6DC"/>
		<stop  offset="0.0123" style="stop-color:#97AAB4"/>
		<stop  offset="0.0191" style="stop-color:#506F7E"/>
		<stop  offset="0.0199" style="stop-color:#486878"/>
		<stop  offset="1" style="stop-color:#486878"/>
	</linearGradient>
	
		<rect id="XMLID_00000052819654449810309040000011436189428938509463_" x="343.39" y="222.03" style="clip-path:url(#XMLID_00000153697869164774481180000013015123976257725878_);fill:url(#XMLID_00000054239241603634461250000003529833724280185276_);" width="782.46" height="582.12"/>
</g>
<path class="st7" d="M1188.26,685.76"/>
<path id="SVGID_x5F_00000109752050091507560890000007695197303589336235_x5F_" class="st7" d="M183.94,484.9
	c-0.18,36.29,3.23,183.78,116.53,312.8C421.73,935.76,581.12,952.8,614.51,955.62c38.77,2.6,195.17,8.6,336.08-102.73
	c173.49-137.07,183.49-341.36,184.44-371.06"/>
<text><textPath  xlink:href="#SVGID_x5F_00000109752050091507560890000007695197303589336235_x5F_" startOffset="5.1025%">
<tspan  style="fill:#486878; font-family:'RageItalic'; font-size:183.9974px;">etaconception</tspan></textPath>
</text>
</svg>
