<?xml version="1.0" encoding="utf-8"?>
<!-- Generator: Adobe Illustrator 26.1.0, SVG Export Plug-In . SVG Version: 6.00 Build 0)  -->
<svg version="1.1" xmlns="http://www.w3.org/2000/svg" xmlns:xlink="http://www.w3.org/1999/xlink" x="0px" y="0px"
	 viewBox="0 0 32 32" style="enable-background:new 0 0 32 32;" xml:space="preserve">
<style type="text/css">
	.st0{fill:#67859A;}
	.st1{fill:#FFFFFF;}
</style>
<g id="Calque_1">
	<g>
		<path class="st0" d="M13.58,31.08c-0.29,0-0.55,0-0.86,0c0-0.42,0-0.84,0-1.29c-0.55,0-1.05,0-1.6,0c0,0.42,0,0.83,0,1.27
			c-0.31,0-0.58,0-0.88,0c0-1.36,0-2.72,0-4.1c0.29,0,0.56,0,0.86,0c0,0.63,0,1.23,0,1.87c0.53,0,1.04,0,1.57,0
			c0.01-0.06,0.03-0.12,0.03-0.18c0-0.91,0.01-1.82,0-2.73c-0.01-0.63-0.37-1.12-0.97-1.3C10.83,24.36,9.91,24.1,9,23.87
			c-0.16-0.04-0.39,0.02-0.52,0.12C7.73,24.53,6.73,24.57,6.02,24c-0.22-0.17-0.4-0.21-0.64-0.13c-0.32,0.11-0.65,0.19-1.02,0.29
			c-0.08-0.29-0.15-0.55-0.24-0.85c0.37-0.11,0.72-0.21,1.07-0.3c0.21-0.05,0.28-0.17,0.29-0.39c0.03-0.52-0.03-0.94-0.49-1.31
			c-0.53-0.43-0.81-1.08-0.85-1.77c-0.06-1.05-0.19-2.11,0.32-3.1c0.65-1.28,2.05-1.91,3.49-1.6c1.3,0.28,2.31,1.48,2.37,2.86
			c0.02,0.5,0.02,1,0.01,1.5c-0.01,0.95-0.39,1.73-1.11,2.35c-0.2,0.18-0.37,1.1-0.22,1.31c0.06,0.08,0.2,0.12,0.3,0.15
			c0.87,0.25,1.75,0.48,2.62,0.74c1.08,0.33,1.66,1.1,1.67,2.22c0.02,1.62,0,3.24,0,4.86C13.6,30.9,13.59,30.97,13.58,31.08z
			 M9.26,17.12c-0.52,0-0.84-0.45-1.26-0.45c-1.98-0.02-1.81,0.12-2.92,1.5c-0.02,0.02-0.05,1.14-0.05,1.16
			C5,19.5,5.12,19.82,5.17,19.97c0.31,0.89,1.18,1.45,2.15,1.41c0.94-0.03,1.79-0.65,2.02-1.59C9.47,19.24,9.21,17.76,9.26,17.12z
			 M6.36,22.24c0.09,0.39-0.2,0.85,0.31,1.13c0.39,0.22,0.89,0.2,1.22-0.07c0.38-0.31,0.14-0.71,0.19-1.06
			C7.49,22.24,6.95,22.24,6.36,22.24z"/>
		<path class="st0" d="M20.48,11.27c-0.54,0-0.95,0-1.42,0c0,1.38,0,2.73,0,4.1c-2.09,0-4.14,0-6.23,0c0-1.36,0-2.7,0-4.09
			c-0.47,0-0.9,0-1.44,0c1.55-1.81,3.03-3.54,4.55-5.3C17.45,7.73,18.93,9.45,20.48,11.27z M18.14,11.28c-1.47,0-2.92,0-4.39,0
			c0,1.08,0,2.13,0,3.19c0.3,0,0.56,0,0.86,0c0-0.38-0.01-0.74,0-1.09c0.04-0.83,0.6-1.38,1.38-1.36c0.75,0.02,1.28,0.6,1.29,1.4
			c0,0.35,0,0.7,0,1.05c0.33,0,0.6,0,0.86,0C18.14,13.4,18.14,12.35,18.14,11.28z M15.94,7.34c-0.86,1-1.69,1.97-2.55,2.98
			c1.73,0,3.38,0,5.1,0C17.62,9.31,16.81,8.35,15.94,7.34z M15.5,14.48c0.29,0,0.57,0,0.88,0c0-0.38,0.01-0.75,0-1.11
			c-0.01-0.27-0.16-0.44-0.45-0.44c-0.29,0-0.42,0.19-0.43,0.46C15.49,13.74,15.5,14.09,15.5,14.48z"/>
		<path class="st0" d="M8.85,12.25c0.27-0.14,0.51-0.25,0.78-0.39c0.43,0.81,1.04,1.42,1.83,1.86c0.07,0.04,0.1,0.2,0.09,0.31
			c-0.12,2.36,2.06,3.85,4.2,2.86c0.21-0.1,0.32-0.05,0.47,0.09c2.09,1.94,4.95,1.94,7.06,0.01c0.1-0.09,0.32-0.15,0.42-0.11
			c1,0.46,1.96,0.43,2.91-0.13c0.04-0.03,0.09-0.04,0.17-0.08c0.16,0.22,0.33,0.44,0.51,0.68c-0.94,0.65-1.93,0.9-3.01,0.63
			c-0.44-0.11-0.74-0.05-1.11,0.22c-2.13,1.54-4.98,1.47-7.06-0.15c-0.2-0.15-0.36-0.19-0.6-0.13c-2.43,0.64-4.64-0.93-4.87-3.42
			c-0.01-0.14-0.11-0.32-0.23-0.4C9.76,13.62,9.22,13.04,8.85,12.25z"/>
		<path class="st0" d="M28,16.67c-0.25-0.2-0.45-0.36-0.68-0.54c0.49-0.66,0.68-1.39,0.63-2.19c-0.01-0.11,0.17-0.27,0.3-0.34
			c2.39-1.49,2.75-4.74,0.65-6.58c-0.59-0.52-0.93-0.97-1.05-1.8c-0.29-1.92-2.31-2.85-4.1-2.05c-0.11,0.05-0.29,0.07-0.38,0.01
			c-0.61-0.42-1.2-0.87-1.85-1.34c0.06-0.16,0.15-0.42,0.28-0.78c0.55,0.33,1.06,0.61,1.54,0.94c0.22,0.15,0.39,0.22,0.67,0.13
			c2.27-0.65,4.57,0.92,4.8,3.27c0.03,0.3,0.14,0.49,0.38,0.67c2.58,1.96,2.62,5.86,0.08,7.87c-0.31,0.24-0.44,0.49-0.48,0.87
			C28.73,15.49,28.46,16.1,28,16.67z"/>
		<path class="st0" d="M20.84,0.88c-0.05,0.28-0.1,0.54-0.14,0.74c-0.69,0.05-1.33,0.05-1.96,0.14c-0.96,0.14-1.79,0.62-2.48,1.29
			c-0.19,0.18-0.32,0.22-0.57,0.1C13.65,2.19,11.4,3.75,11.54,6c0.01,0.13-0.05,0.32-0.15,0.39c-1.86,1.32-2.34,2.38-2.08,4.72
			c-0.25,0.07-0.51,0.14-0.79,0.23c-0.25-0.65-0.25-1.29-0.16-1.93c0.19-1.39,0.84-2.53,1.98-3.38c0.19-0.14,0.3-0.28,0.32-0.54
			c0.19-2.45,2.55-4.04,4.91-3.35c0.15,0.04,0.38-0.03,0.51-0.13c1.35-1.01,2.85-1.42,4.53-1.18C20.67,0.84,20.73,0.86,20.84,0.88z"
			/>
		<path class="st0" d="M24.93,15.04c-0.46-0.46-0.97-0.99-1.49-1.51c-0.4-0.4-0.8-0.8-1.19-1.2c-0.8-0.82-0.86-1.95-0.18-2.78
			c0.68-0.83,1.82-0.98,2.77-0.36c0.05,0.04,0.11,0.07,0.17,0.12c0.56-0.41,1.16-0.61,1.85-0.44c1.44,0.36,2.1,2.1,1.12,3.2
			C27.05,13.12,25.98,14.03,24.93,15.04z M25.01,13.81c0.76-0.75,1.51-1.46,2.23-2.21c0.44-0.46,0.38-1.17-0.07-1.6
			c-0.45-0.42-1.1-0.43-1.57,0.01c-0.19,0.18-0.34,0.4-0.58,0.69c-0.24-0.29-0.39-0.51-0.58-0.69c-0.48-0.45-1.15-0.44-1.6,0.01
			c-0.43,0.43-0.48,1.12-0.05,1.57C23.51,12.35,24.26,13.07,25.01,13.81z"/>
		<path class="st0" d="M3.27,23.59c0.07,0.27,0.14,0.52,0.22,0.82c-0.26,0.07-0.5,0.14-0.73,0.21c-0.52,0.15-0.94,0.49-0.97,1.03
			c-0.06,1.06-0.02,2.12-0.02,3.2c0.5,0,1,0,1.55,0c0-0.62,0-1.24,0-1.88c0.33,0,0.6,0,0.89,0c0,1.38,0,2.73,0,4.1
			c-0.28,0-0.55,0-0.86,0c0-0.41,0-0.83,0-1.27c-0.55,0-1.05,0-1.6,0c0,0.41,0,0.83,0,1.27c-0.31,0-0.58,0-0.91,0
			c0-0.13,0-0.27,0-0.41c0-1.46,0-2.92,0-4.38C0.84,24.68,1.61,23.81,3.27,23.59z"/>
		<path class="st0" d="M20.18,3.5c0-0.25,0-0.5,0-0.78c0.3,0,0.56,0,0.88,0c0.01,0.25,0.02,0.51,0.04,0.8c0.33,0,0.64,0,0.98,0
			c0,0.31,0,0.58,0,0.92c-0.47,0-0.95,0-1.43,0c-0.18,0-0.37-0.01-0.55,0.01c-0.32,0.02-0.48,0.21-0.47,0.52
			c0.01,0.29,0.18,0.46,0.48,0.46c0.28,0.01,0.55,0,0.83,0c0.93,0,1.55,0.49,1.63,1.27c0.08,0.79-0.43,1.37-1.34,1.54
			c-0.02,0-0.05,0.02-0.11,0.04c-0.01,0.24-0.02,0.5-0.04,0.78c-0.28,0-0.55,0-0.86,0c0-0.26,0-0.51,0-0.81
			c-0.36-0.02-0.68-0.03-1.02-0.05c0-0.3,0-0.57,0-0.88c0.65,0,1.28,0,1.9,0c0.26,0,0.47-0.07,0.55-0.35
			c0.09-0.32-0.1-0.61-0.45-0.63c-0.31-0.02-0.63-0.01-0.95-0.01c-0.86-0.01-1.46-0.51-1.53-1.28c-0.06-0.75,0.43-1.34,1.25-1.51
			C20.02,3.53,20.08,3.51,20.18,3.5z"/>
		<path class="st0" d="M16.86,22.01c0-1.06,0.87-1.93,1.94-1.92c1.05,0.01,1.9,0.85,1.92,1.91c0.02,1.06-0.85,1.93-1.92,1.94
			C17.72,23.94,16.86,23.08,16.86,22.01z M18.77,20.99c-0.57,0.01-1.02,0.47-1.02,1.04c0,0.59,0.48,1.04,1.07,1.02
			c0.57-0.02,1.01-0.48,1-1.06C19.8,21.42,19.34,20.98,18.77,20.99z"/>
		<path class="st0" d="M14.83,21.69c0.81,0.01,1.45,0.66,1.44,1.47c-0.01,0.79-0.65,1.43-1.44,1.43c-0.8,0-1.46-0.65-1.46-1.45
			C13.37,22.33,14.02,21.69,14.83,21.69z M14.82,23.69c0.31,0,0.55-0.23,0.55-0.54c0-0.3-0.24-0.55-0.54-0.56
			c-0.31-0.01-0.58,0.26-0.57,0.57C14.26,23.46,14.5,23.69,14.82,23.69z"/>
		<path d="M5.08,19.13"/>
	</g>
</g>
<g id="Calque_2">
	<path class="st0" d="M7.13,14.6c-0.11-0.04-0.42-0.12-0.78,0c-0.54,0.18-0.74,0.67-0.78,0.78c-0.02,0.06-0.22,0.58,0,0.78
		c0.13,0.12,0.31,0.04,0.78,0c0.33-0.03,0.6-0.79,0.78-0.78c0.01-0.01,0,0.78,0,0C7.13,14.84,7.04,14.73,7.13,14.6
		c0.22-0.38,1.22-0.52,1.56,0c0.14,0.22,0.16,0.56,0,0.78c-0.25,0.35-0.94,0.44-1.56,0"/>
	<path class="st0" d="M6.35,14.6c-0.03-0.07-0.19-0.49,0-0.78c0.3-0.46,1.56-0.06,1.56,0c0,0.02,0.59,0.81,0,0.78"/>
	<path class="st1" d="M7.45,14.39"/>
	<path class="st1" d="M7.9,15.37L7.9,15.37c0.04-0.02,0.21-0.09,0.27-0.27c0.09-0.25-0.13-0.48-0.17-0.51c0,0-0.13-0.13-0.54-0.2
		c-0.01,0-0.02,0-0.02,0c0,0.01,0.05,0.04,0.07,0.05c0.08,0.04,0.13,0.05,0.21,0.07c0.07,0.02,0.15,0.04,0.22,0.09
		c0.1,0.08,0.14,0.18,0.16,0.22c0.02,0.06,0.05,0.15,0.02,0.24C8.11,15.1,8.1,15.11,8,15.23C7.96,15.28,7.92,15.35,7.9,15.37"/>
	<path class="st1" d="M8.08,15.32L8.08,15.32c0.04-0.02,0.21-0.09,0.27-0.27c0.09-0.25-0.13-0.48-0.17-0.51c0,0-0.13-0.13-0.54-0.2
		c-0.01,0-0.02,0-0.02,0c0,0.01,0.05,0.04,0.07,0.05c0.08,0.04,0.13,0.05,0.21,0.07c0.07,0.02,0.15,0.04,0.22,0.09
		c0.1,0.08,0.14,0.18,0.16,0.22c0.02,0.06,0.05,0.15,0.02,0.24c-0.01,0.03-0.02,0.04-0.12,0.16C8.14,15.23,8.11,15.3,8.08,15.32"/>
</g>
</svg>
